+ yt-dlp --no-playlist -f ba/b -o /home/ubuntu/thaphan/piano2sheet/runs/tonghua_3Vy4j8GhTig_20260618_082524/01_raw_audio.%(ext)s --cookies cache/youtube_cookies.txt https://youtu.be/3Vy4j8GhTig
[youtube] Extracting URL: https://youtu.be/3Vy4j8GhTig
[youtube] 3Vy4j8GhTig: Downloading webpage
[youtube] 3Vy4j8GhTig: Downloading tv downgraded player API JSON
[youtube] 3Vy4j8GhTig: Downloading player 8583bbc2-main
[youtube] [jsc:deno] Solving JS challenges using deno
[youtube] 3Vy4j8GhTig: Downloading m3u8 information
[info] 3Vy4j8GhTig: Downloading 1 format(s): 251
[download] Destination: /home/ubuntu/thaphan/piano2sheet/runs/tonghua_3Vy4j8GhTig_20260618_082524/01_raw_audio.webm
[download]   0.0% of    4.39MiB at  472.17KiB/s ETA 00:09[download]   0.1% of    4.39MiB at    1.23MiB/s ETA 00:03[download]   0.2% of    4.39MiB at    2.67MiB/s ETA 00:01[download]   0.3% of    4.39MiB at    5.34MiB/s ETA 00:00[download]   0.7% of    4.39MiB at    1.26MiB/s ETA 00:03[download]   1.4% of    4.39MiB at    1.61MiB/s ETA 00:02[download]   2.8% of    4.39MiB at    2.07MiB/s ETA 00:02[download]   5.7% of    4.39MiB at    2.66MiB/s ETA 00:01[download]  11.4% of    4.39MiB at    4.14MiB/s ETA 00:00[download]  22.7% of    4.39MiB at    6.84MiB/s ETA 00:00[download]  45.5% of    4.39MiB at   11.50MiB/s ETA 00:00[download]  91.0% of    4.39MiB at   19.62MiB/s ETA 00:00[download] 100.0% of    4.39MiB at   20.81MiB/s ETA 00:00[download] 100% of    4.39MiB in 00:00:00 at 13.21MiB/s  
+ ffmpeg -y -i /home/ubuntu/thaphan/piano2sheet/runs/tonghua_3Vy4j8GhTig_20260618_082524/01_raw_audio.webm -ac 1 -ar 44100 -af aresample=async=1:first_pts=0 /home/ubuntu/thaphan/piano2sheet/runs/tonghua_3Vy4j8GhTig_20260618_082524/02_audio_44100_mono.wav
ffmpeg version 4.4.2-0ubuntu0.22.04.1 Copyright (c) 2000-2021 the FFmpeg developers
  built with gcc 11 (Ubuntu 11.2.0-19ubuntu1)
  configuration: --prefix=/usr --extra-version=0ubuntu0.22.04.1 --toolchain=hardened --libdir=/usr/lib/x86_64-linux-gnu --incdir=/usr/include/x86_64-linux-gnu --arch=amd64 --enable-gpl --disable-stripping --enable-gnutls --enable-ladspa --enable-libaom --enable-libass --enable-libbluray --enable-libbs2b --enable-libcaca --enable-libcdio --enable-libcodec2 --enable-libdav1d --enable-libflite --enable-libfontconfig --enable-libfreetype --enable-libfribidi --enable-libgme --enable-libgsm --enable-libjack --enable-libmp3lame --enable-libmysofa --enable-libopenjpeg --enable-libopenmpt --enable-libopus --enable-libpulse --enable-librabbitmq --enable-librubberband --enable-libshine --enable-libsnappy --enable-libsoxr --enable-libspeex --enable-libsrt --enable-libssh --enable-libtheora --enable-libtwolame --enable-libvidstab --enable-libvorbis --enable-libvpx --enable-libwebp --enable-libx265 --enable-libxml2 --enable-libxvid --enable-libzimg --enable-libzmq --enable-libzvbi --enable-lv2 --enable-omx --enable-openal --enable-opencl --enable-opengl --enable-sdl2 --enable-pocketsphinx --enable-librsvg --enable-libmfx --enable-libdc1394 --enable-libdrm --enable-libiec61883 --enable-chromaprint --enable-frei0r --enable-libx264 --enable-shared
  libavutil      56. 70.100 / 56. 70.100
  libavcodec     58.134.100 / 58.134.100
  libavformat    58. 76.100 / 58. 76.100
  libavdevice    58. 13.100 / 58. 13.100
  libavfilter     7.110.100 /  7.110.100
  libswscale      5.  9.100 /  5.  9.100
  libswresample   3.  9.100 /  3.  9.100
  libpostproc    55.  9.100 / 55.  9.100
Input #0, matroska,webm, from '/home/ubuntu/thaphan/piano2sheet/runs/tonghua_3Vy4j8GhTig_20260618_082524/01_raw_audio.webm':
  Metadata:
    encoder         : google/video-file
  Duration: 00:04:05.14, start: -0.007000, bitrate: 150 kb/s
  Stream #0:0(eng): Audio: opus, 48000 Hz, stereo, fltp (default)
Stream mapping:
  Stream #0:0 -> #0:0 (opus (native) -> pcm_s16le (native))
Press [q] to stop, [?] for help
Output #0, wav, to '/home/ubuntu/thaphan/piano2sheet/runs/tonghua_3Vy4j8GhTig_20260618_082524/02_audio_44100_mono.wav':
  Metadata:
    ISFT            : Lavf58.76.100
  Stream #0:0(eng): Audio: pcm_s16le ([1][0][0][0] / 0x0001), 44100 Hz, mono, s16, 705 kb/s (default)
    Metadata:
      encoder         : Lavc58.134.100 pcm_s16le
size=       1kB time=00:00:00.00 bitrate=N/A speed=   0x    size=   18944kB time=00:03:41.42 bitrate= 700.9kbits/s speed= 443x    size=   21114kB time=00:04:05.12 bitrate= 705.6kbits/s speed= 438x    
video:0kB audio:21114kB subtitle:0kB other streams:0kB global headers:0kB muxing overhead: 0.000361%
+ transkun /home/ubuntu/thaphan/piano2sheet/runs/tonghua_3Vy4j8GhTig_20260618_082524/02_audio_44100_mono.wav /home/ubuntu/thaphan/piano2sheet/runs/tonghua_3Vy4j8GhTig_20260618_082524/03_transkun.mid --device cuda
/home/ubuntu/thaphan/piano2sheet/.venv/lib/python3.10/site-packages/torch/_dynamo/eval_frame.py:1263: UserWarning: torch.utils.checkpoint: the use_reentrant parameter should be passed explicitly. Starting in PyTorch 2.9, calling checkpoint without use_reentrant will raise an exception. use_reentrant=False is recommended, but if you need to preserve the current default behavior, you can pass use_reentrant=True. Refer to docs for more details on the differences between the two variants.
  return fn(*args, **kwargs)
/home/ubuntu/thaphan/piano2sheet/.venv/lib/python3.10/site-packages/torch/utils/checkpoint.py:232: UserWarning: None of the inputs have requires_grad=True. Gradients will be None
  check_backward_validity(args)
hand-split @ 60: right=1172 left=774 -> /home/ubuntu/thaphan/piano2sheet/runs/tonghua_3Vy4j8GhTig_20260618_082524/05_2hand.mid
key detection: ['Gb', 'Ab', 'Bb'] (sig ['Gb', 'Ab', 'Bb'])
  section 1: Gb   (sig Gb) [   0.0s ->  170.0s]  r=0.96
  section 2: Ab   (sig Ab) [ 170.0s ->  199.0s]  r=0.99  (+2 st up)
  section 3: Bb   (sig Bb) [ 199.0s ->  242.5s]  r=0.96  (+2 st up)
